<svg width="330" height="49" viewBox="0 0 330 49" fill="none" xmlns="http://www.w3.org/2000/svg">
<path d="M27.9432 24.64C24.5832 24.64 21.8952 27.412 21.8952 30.772C21.8952 34.132 24.5832 36.82 27.9432 36.82H31.0512V49H27.9432C20.0472 49 13.2432 43.96 10.7232 36.82H0.559172V0.279996H12.7392V20.692C16.0152 15.736 21.6432 12.46 27.9432 12.46H31.0512V24.64H27.9432ZM49.4071 49H37.2271V12.46H49.4071V49ZM98.3562 12.46C108.436 12.46 116.668 20.692 116.668 30.772V49H104.488V30.772C104.488 27.412 101.716 24.64 98.3562 24.64C94.9962 24.64 92.2242 27.412 92.2242 30.772V49H80.0442V12.46H67.8642V49H55.6842V0.279996H92.2242V13.552C94.1562 12.88 96.1722 12.46 98.3562 12.46ZM135.13 49H122.95V12.46H135.13V49ZM184.079 12.46C194.159 12.46 202.391 20.692 202.391 30.772V49H190.211V30.772C190.211 27.412 187.439 24.64 184.079 24.64C180.719 24.64 177.947 27.412 177.947 30.772V49H165.767V12.46H153.587V49H141.407V0.279996H177.947V13.552C179.879 12.88 181.895 12.46 184.079 12.46ZM233.032 12.46H245.212V30.772C245.212 40.852 237.064 49 226.984 49C216.82 49 208.672 40.852 208.672 30.772V12.46H220.852V30.772C220.852 34.132 223.624 36.82 226.984 36.82C230.344 36.82 233.032 34.132 233.032 30.772V12.46ZM281.817 12.46C275.097 12.46 269.637 17.92 269.637 24.64H257.373C257.373 11.2 268.377 0.279996 281.817 0.279996V12.46ZM245.193 36.82H269.637V24.64H281.817V49H245.193V36.82ZM300.259 49H288.079V12.46H300.259V49ZM329.384 12.46C322.58 12.46 317.12 17.92 317.12 24.64C317.12 31.36 322.58 36.82 329.384 36.82V49C315.86 49 304.94 38.08 304.94 24.64C304.94 11.2 315.86 0.279996 329.384 0.279996V12.46Z" fill="black"/>
</svg>
